<mxfile host="app.diagrams.net" agent="Mozilla/5.0 (Windows NT 10.0; Win64; x64) AppleWebKit/537.36 (KHTML, like Gecko) Chrome/133.0.0.0 Safari/537.36" version="26.0.16">
  <diagram name="Page-1" id="cA64vV0uRYZdwKJHaOFr">
    <mxGraphModel dx="1050" dy="570" grid="1" gridSize="10" guides="1" tooltips="1" connect="1" arrows="1" fold="1" page="1" pageScale="1" pageWidth="850" pageHeight="1100" math="0" shadow="0">
      <root>
        <mxCell id="0" />
        <mxCell id="1" parent="0" />
        <mxCell id="m7ZQHP3qZGSN1cg1UqS_-14" value="" style="verticalLabelPosition=bottom;verticalAlign=top;html=1;strokeWidth=5;shape=mxgraph.arrows2.arrow;dy=0.6;dx=40;notch=0;rotation=-90;" parent="1" vertex="1">
          <mxGeometry x="534.5" y="380" width="60" height="70" as="geometry" />
        </mxCell>
        <mxCell id="m7ZQHP3qZGSN1cg1UqS_-6" value="" style="verticalLabelPosition=bottom;verticalAlign=top;html=1;strokeWidth=5;shape=mxgraph.arrows2.arrow;dy=0.6;dx=40;notch=0;rotation=90;" parent="1" vertex="1">
          <mxGeometry x="115" y="560" width="60" height="70" as="geometry" />
        </mxCell>
        <mxCell id="m7ZQHP3qZGSN1cg1UqS_-1" value="Discord member&lt;div&gt;sends a toxic message&lt;/div&gt;" style="rounded=1;whiteSpace=wrap;html=1;absoluteArcSize=1;arcSize=14;strokeWidth=5;" parent="1" vertex="1">
          <mxGeometry x="80" y="245" width="140" height="60" as="geometry" />
        </mxCell>
        <mxCell id="m7ZQHP3qZGSN1cg1UqS_-2" value="" style="verticalLabelPosition=bottom;verticalAlign=top;html=1;strokeWidth=5;shape=mxgraph.arrows2.arrow;dy=0.6;dx=40;notch=0;rotation=91;" parent="1" vertex="1">
          <mxGeometry x="120" y="300" width="60" height="70" as="geometry" />
        </mxCell>
        <mxCell id="m7ZQHP3qZGSN1cg1UqS_-3" value="Discord event&lt;div&gt;messageCreate&lt;/div&gt;&lt;div&gt;is triggered&lt;/div&gt;" style="rounded=1;whiteSpace=wrap;html=1;absoluteArcSize=1;arcSize=14;strokeWidth=5;" parent="1" vertex="1">
          <mxGeometry x="95" y="370" width="110" height="70" as="geometry" />
        </mxCell>
        <mxCell id="m7ZQHP3qZGSN1cg1UqS_-4" value="" style="verticalLabelPosition=bottom;verticalAlign=top;html=1;strokeWidth=5;shape=mxgraph.arrows2.arrow;dy=0.6;dx=40;notch=0;rotation=90;" parent="1" vertex="1">
          <mxGeometry x="120" y="435" width="60" height="70" as="geometry" />
        </mxCell>
        <mxCell id="m7ZQHP3qZGSN1cg1UqS_-5" value="The message content&lt;div&gt;is collected&lt;/div&gt;" style="shape=parallelogram;html=1;strokeWidth=5;perimeter=parallelogramPerimeter;whiteSpace=wrap;rounded=1;arcSize=12;size=0.23;" parent="1" vertex="1">
          <mxGeometry x="60" y="500" width="180" height="65" as="geometry" />
        </mxCell>
        <mxCell id="m7ZQHP3qZGSN1cg1UqS_-7" value="Sends the message for evaluation to the model api" style="rounded=1;whiteSpace=wrap;html=1;absoluteArcSize=1;arcSize=14;strokeWidth=5;" parent="1" vertex="1">
          <mxGeometry x="85" y="620" width="120" height="65" as="geometry" />
        </mxCell>
        <mxCell id="m7ZQHP3qZGSN1cg1UqS_-8" value="" style="verticalLabelPosition=bottom;verticalAlign=top;html=1;strokeWidth=5;shape=mxgraph.arrows2.arrow;dy=0.6;dx=40;notch=0;rotation=0;" parent="1" vertex="1">
          <mxGeometry x="205" y="620" width="70" height="70" as="geometry" />
        </mxCell>
        <mxCell id="m7ZQHP3qZGSN1cg1UqS_-9" value="The model returns the labels to the discord bot" style="rounded=1;whiteSpace=wrap;html=1;absoluteArcSize=1;arcSize=14;strokeWidth=5;" parent="1" vertex="1">
          <mxGeometry x="275" y="620" width="152.5" height="65" as="geometry" />
        </mxCell>
        <mxCell id="m7ZQHP3qZGSN1cg1UqS_-10" value="" style="verticalLabelPosition=bottom;verticalAlign=top;html=1;strokeWidth=5;shape=mxgraph.arrows2.arrow;dy=0.6;dx=40;notch=0;" parent="1" vertex="1">
          <mxGeometry x="427.5" y="617.5" width="62" height="70" as="geometry" />
        </mxCell>
        <mxCell id="m7ZQHP3qZGSN1cg1UqS_-11" value="The discord bot logs the messages and their labels" style="rounded=1;whiteSpace=wrap;html=1;absoluteArcSize=1;arcSize=14;strokeWidth=5;" parent="1" vertex="1">
          <mxGeometry x="489.5" y="617.5" width="150" height="67.5" as="geometry" />
        </mxCell>
        <mxCell id="m7ZQHP3qZGSN1cg1UqS_-12" value="" style="verticalLabelPosition=bottom;verticalAlign=top;html=1;strokeWidth=5;shape=mxgraph.arrows2.arrow;dy=0.6;dx=40;notch=0;rotation=-91;" parent="1" vertex="1">
          <mxGeometry x="534.5" y="550" width="60" height="70" as="geometry" />
        </mxCell>
        <mxCell id="m7ZQHP3qZGSN1cg1UqS_-13" value="Through interactive buttons, moderators of the discord server can approve or correct the labels" style="rounded=1;whiteSpace=wrap;html=1;absoluteArcSize=1;arcSize=14;strokeWidth=5;" parent="1" vertex="1">
          <mxGeometry x="479.5" y="450" width="170" height="100" as="geometry" />
        </mxCell>
        <mxCell id="m7ZQHP3qZGSN1cg1UqS_-15" value="Results into labeled&lt;div&gt;&amp;nbsp;data ready for&amp;nbsp;&lt;/div&gt;&lt;div&gt;the next training loop&lt;/div&gt;" style="shape=parallelogram;html=1;strokeWidth=5;perimeter=parallelogramPerimeter;whiteSpace=wrap;rounded=1;arcSize=12;size=0.23;" parent="1" vertex="1">
          <mxGeometry x="469.5" y="310" width="190" height="70" as="geometry" />
        </mxCell>
      </root>
    </mxGraphModel>
  </diagram>
</mxfile>
